# xmcd
#
# Track frame offsets:
#	150
#	13408
#	27275
#	41078
#	54973
#	69387
#	82981
#	95446
#	107843
#	120129
#	137563
#	153316
#
# Disc length: 2206 seconds
#
# Revision: 3
# Processed by: cddbd v1.5.2PL0 Copyright (c) Steve Scherf et al.
# Submitted via: EasyCDDAExtractor 12.0.1.1
#
DISCID=8f089c0c
DTITLE=Pk and Dansefolket - Kom Nærmere
DYEAR=2002
DGENRE=Danseband
TTITLE0=Du Må Ha Det Riktig Godt
TTITLE1=Hvor Enn Jeg Går
TTITLE2=Sommermarked
TTITLE3=Litt På Grensen
TTITLE4=Den Jeg ErNummer
TTITLE5=Et Kvarter Over Sju
TTITLE6=Fridag
TTITLE7=Møt Meg I Parken
TTITLE8=40 Tonn På Vei
TTITLE9=Let's Talk Dirty In Hawaiian
TTITLE10=Samme Tid, Samme Sted
TTITLE11=Tenk At Nå Er Det Sommer
EXTD=
EXTT0=
EXTT1=
EXTT2=
EXTT3=
EXTT4=
EXTT5=
EXTT6=
EXTT7=
EXTT8=
EXTT9=
EXTT10=
EXTT11=
PLAYORDER=
